<?xml version="1.0" encoding="utf-8"?>
<!-- Generator: Adobe Illustrator 26.0.1, SVG Export Plug-In . SVG Version: 6.00 Build 0)  -->
<svg version="1.1" id="Layer_1" xmlns="http://www.w3.org/2000/svg" xmlns:xlink="http://www.w3.org/1999/xlink" x="0px" y="0px"
	 viewBox="0 0 126 72" style="enable-background:new 0 0 126 72;" xml:space="preserve">
<style type="text/css">
	.st0{clip-path:url(#SVGID_00000041288949317123552980000009326803919321078661_);}
	.st1{fill:#FFFFFF;}
</style>
<g>
	<defs>
		<rect id="SVGID_1_" x="0" y="0.1" width="126" height="71.8"/>
	</defs>
	<clipPath id="SVGID_00000044156827714166888930000010280575023852243377_">
		<use xlink:href="#SVGID_1_"  style="overflow:visible;"/>
	</clipPath>
	<g style="clip-path:url(#SVGID_00000044156827714166888930000010280575023852243377_);">
		<path class="st1" d="M4.5,31.3l3.6-0.2L7.1,12l-3.5,0.2L3.3,4.7l17.1-0.9c1.7-0.1,3.2-0.1,4.5,0c1.3,0.1,2.6,0.3,3.7,0.6
			c1.2,0.3,2.2,0.8,2.9,1.4s1.4,1.5,1.9,2.4c0.5,1,0.7,2.2,0.8,3.6c0.1,1.8-0.3,3.3-1.2,4.7c-0.9,1.4-2.1,2.4-3.6,3v0
			c2.1,0.5,3.8,1.5,5,2.9c1.2,1.5,1.9,3.4,2,5.7c0.1,1.6-0.1,3-0.7,4.1c-0.5,1.2-1.4,2.2-2.5,2.9c-1.1,0.7-2.4,1.3-3.8,1.7
			c-1.4,0.4-3.1,0.7-4.9,0.7l-19.8,1L4.5,31.3z M18.6,17.9l0.9,0c0.7,0,1.4-0.1,1.8-0.2c0.5-0.1,1-0.3,1.4-0.5
			c0.5-0.3,0.8-0.6,1-1.1c0.2-0.5,0.3-1.2,0.3-1.9c0-1-0.4-1.6-1-2.1c-0.6-0.5-1.3-0.7-2.1-0.7l-2.6,0.1L18.6,17.9z M18.9,23.4
			l0.4,7.2c0.1,0,0.3,0,0.5,0c0.3,0,0.5,0,0.8,0c0.3,0,0.5,0,0.8-0.1c0.3,0,0.5-0.1,0.7-0.1c0.2,0,0.5-0.1,0.7-0.1
			c0.2-0.1,0.4-0.1,0.6-0.3c0.2-0.1,0.4-0.2,0.5-0.3c0.1-0.1,0.3-0.3,0.4-0.5c0.1-0.2,0.2-0.4,0.3-0.6c0.1-0.2,0.1-0.5,0.2-0.8
			c0-0.3,0-0.6,0-1c0-0.6-0.1-1.2-0.4-1.6c-0.2-0.4-0.5-0.8-0.7-1c-0.3-0.3-0.6-0.4-1-0.5c-0.4-0.1-0.8-0.2-1.1-0.2
			c-0.3,0-0.7,0-1.1,0C20.2,23.4,19.7,23.4,18.9,23.4z"/>
		<path class="st1" d="M59.1,22.8l-1.3-6.4l-4.5-0.3l-0.3,6l4.3,0.2L57,29.8l-4.3-0.2l-0.3,5.8l4.6,0.2l0.3-1.3l1.6-5.6l5.7,0.3
			l-0.7,14.5l-26.9-1.4l0.4-7.6l3.3,0.2l1-19.2l-3.3-0.2L38.7,8l26.7,1.4l-0.7,13.7L59.1,22.8z"/>
		<path class="st1" d="M89.8,0.1l0.8,10.9l-6.5,0.4c-0.3-1.1-1-2-1.9-2.8c-0.9-0.8-1.9-1.1-3-1.1c-0.6,0-1.1,0.2-1.4,0.6
			c-0.3,0.3-0.5,0.8-0.4,1.5c0,0.4,0.2,0.8,0.6,1.1c0.4,0.3,0.8,0.5,1.5,0.7c0.6,0.2,1.3,0.4,2.1,0.5c0.8,0.2,1.6,0.4,2.5,0.6
			c0.9,0.2,1.8,0.5,2.6,0.8c0.9,0.3,1.7,0.7,2.5,1.3c0.8,0.5,1.5,1.2,2.2,2c0.7,0.8,1.2,1.7,1.7,2.9c0.4,1.2,0.7,2.5,0.9,3.9
			c0.1,1.4,0,2.9-0.4,4.2c-0.4,1.4-1,2.6-1.8,3.8c-0.8,1.1-1.8,2-3,2.7c-1.2,0.7-2.6,1.1-4.1,1.2c-1.5,0.1-2.8,0-3.8-0.3
			c-1-0.3-2.1-0.9-3.3-1.8l-0.6,2l-6.8,0.5l-0.8-10.9l6.8-0.5c0.4,1,1.1,1.9,2.2,2.6c1,0.7,2,1,3,1c0.6,0,1.1-0.2,1.6-0.6
			c0.4-0.3,0.6-0.8,0.6-1.4c0-0.5-0.2-0.9-0.5-1.2c-0.3-0.3-0.7-0.5-1-0.7c-0.4-0.1-0.8-0.3-1.4-0.4c-0.8-0.2-1.6-0.4-2.2-0.5
			c-0.7-0.1-1.4-0.4-2.1-0.6c-0.7-0.2-1.4-0.5-1.9-0.7c-0.5-0.3-1.1-0.5-1.7-0.9c-0.6-0.4-1.1-0.7-1.5-1.1c-0.4-0.4-0.8-0.9-1.3-1.4
			c-0.4-0.5-0.7-1.1-1-1.8c-0.3-0.6-0.5-1.4-0.7-2.1c-0.2-0.8-0.3-1.6-0.4-2.6c-0.2-3.3,0.4-6.1,1.9-8.1c1.5-2.1,3.8-3.3,6.9-3.5
			c2.7-0.2,4.9,0.3,6.7,1.4c0-0.2,0.3-0.6,0.6-1.3L89.8,0.1z"/>
		<path class="st1" d="M118.7,20.7l-0.9-6.5l-2.2-0.1l-1.1,19.1l3.4,0.2l-0.4,7.6l-18.7-1.1l0.4-7.6l3.4,0.2l1.1-19.1l-2.1-0.1
			l-1.7,6.4L94,19.3l0.8-13.8l30.7,1.8l-0.8,13.8L118.7,20.7z"/>
	</g>
</g>
</svg>
